<mxfile host="Electron" modified="2023-04-14T22:45:56.280Z" agent="Mozilla/5.0 (X11; Linux x86_64) AppleWebKit/537.36 (KHTML, like Gecko) draw.io/21.1.2 Chrome/106.0.5249.199 Electron/21.4.3 Safari/537.36" etag="q17wCXCF98Y37VV5Z6Fa" version="21.1.2" type="device">
  <diagram name="Pagina-1" id="N1QZP61j0xHq5YR8vh0B">
    <mxGraphModel dx="1434" dy="878" grid="1" gridSize="10" guides="1" tooltips="1" connect="1" arrows="1" fold="1" page="1" pageScale="1" pageWidth="1169" pageHeight="827" math="0" shadow="0">
      <root>
        <mxCell id="0" />
        <mxCell id="1" parent="0" />
        <mxCell id="Ry6czEcbfaUXOkm1oFJ2-48" value="" style="rounded=1;whiteSpace=wrap;html=1;fillColor=none;strokeColor=none;" parent="1" vertex="1">
          <mxGeometry width="1040" height="800" as="geometry" />
        </mxCell>
        <mxCell id="Ry6czEcbfaUXOkm1oFJ2-18" value="" style="rounded=1;whiteSpace=wrap;html=1;fillColor=#eeeeee;strokeColor=#36393d;" parent="1" vertex="1">
          <mxGeometry x="40" y="40" width="360" height="360" as="geometry" />
        </mxCell>
        <mxCell id="Ry6czEcbfaUXOkm1oFJ2-1" value="" style="ellipse;whiteSpace=wrap;html=1;aspect=fixed;fillColor=none;" parent="1" vertex="1">
          <mxGeometry x="80" y="80" width="280" height="280" as="geometry" />
        </mxCell>
        <mxCell id="Ry6czEcbfaUXOkm1oFJ2-4" value="0" style="rounded=1;whiteSpace=wrap;html=1;fillColor=#fad9d5;strokeColor=#ae4132;" parent="1" vertex="1">
          <mxGeometry x="200" y="340" width="40" height="40" as="geometry" />
        </mxCell>
        <mxCell id="Ry6czEcbfaUXOkm1oFJ2-5" value="6" style="rounded=1;whiteSpace=wrap;html=1;" parent="1" vertex="1">
          <mxGeometry x="200" y="60" width="40" height="40" as="geometry" />
        </mxCell>
        <mxCell id="Ry6czEcbfaUXOkm1oFJ2-6" value="9" style="rounded=1;whiteSpace=wrap;html=1;" parent="1" vertex="1">
          <mxGeometry x="340" y="200" width="40" height="40" as="geometry" />
        </mxCell>
        <mxCell id="Ry6czEcbfaUXOkm1oFJ2-7" value="3" style="rounded=1;whiteSpace=wrap;html=1;" parent="1" vertex="1">
          <mxGeometry x="60" y="200" width="40" height="40" as="geometry" />
        </mxCell>
        <mxCell id="Ry6czEcbfaUXOkm1oFJ2-8" value="7" style="rounded=1;whiteSpace=wrap;html=1;" parent="1" vertex="1">
          <mxGeometry x="270" y="80" width="40" height="40" as="geometry" />
        </mxCell>
        <mxCell id="Ry6czEcbfaUXOkm1oFJ2-9" value="8" style="rounded=1;whiteSpace=wrap;html=1;" parent="1" vertex="1">
          <mxGeometry x="320" y="130" width="40" height="40" as="geometry" />
        </mxCell>
        <mxCell id="Ry6czEcbfaUXOkm1oFJ2-10" value="10" style="rounded=1;whiteSpace=wrap;html=1;" parent="1" vertex="1">
          <mxGeometry x="320" y="270" width="40" height="40" as="geometry" />
        </mxCell>
        <mxCell id="Ry6czEcbfaUXOkm1oFJ2-11" value="11" style="rounded=1;whiteSpace=wrap;html=1;" parent="1" vertex="1">
          <mxGeometry x="270" y="320" width="40" height="40" as="geometry" />
        </mxCell>
        <mxCell id="Ry6czEcbfaUXOkm1oFJ2-12" value="2" style="rounded=1;whiteSpace=wrap;html=1;" parent="1" vertex="1">
          <mxGeometry x="80" y="270" width="40" height="40" as="geometry" />
        </mxCell>
        <mxCell id="Ry6czEcbfaUXOkm1oFJ2-13" value="1" style="rounded=1;whiteSpace=wrap;html=1;" parent="1" vertex="1">
          <mxGeometry x="130" y="320" width="40" height="40" as="geometry" />
        </mxCell>
        <mxCell id="Ry6czEcbfaUXOkm1oFJ2-14" value="5" style="rounded=1;whiteSpace=wrap;html=1;" parent="1" vertex="1">
          <mxGeometry x="130" y="80" width="40" height="40" as="geometry" />
        </mxCell>
        <mxCell id="Ry6czEcbfaUXOkm1oFJ2-15" value="4" style="rounded=1;whiteSpace=wrap;html=1;" parent="1" vertex="1">
          <mxGeometry x="80" y="130" width="40" height="40" as="geometry" />
        </mxCell>
        <mxCell id="Ry6czEcbfaUXOkm1oFJ2-22" value="" style="rounded=0;orthogonalLoop=1;jettySize=auto;html=1;" parent="1" source="Ry6czEcbfaUXOkm1oFJ2-16" target="Ry6czEcbfaUXOkm1oFJ2-21" edge="1">
          <mxGeometry relative="1" as="geometry" />
        </mxCell>
        <mxCell id="Ry6czEcbfaUXOkm1oFJ2-24" value="" style="rounded=0;orthogonalLoop=1;jettySize=auto;html=1;" parent="1" source="Ry6czEcbfaUXOkm1oFJ2-16" target="Ry6czEcbfaUXOkm1oFJ2-23" edge="1">
          <mxGeometry relative="1" as="geometry" />
        </mxCell>
        <mxCell id="Ry6czEcbfaUXOkm1oFJ2-28" style="rounded=0;orthogonalLoop=1;jettySize=auto;html=1;entryX=0;entryY=0.5;entryDx=0;entryDy=0;" parent="1" source="Ry6czEcbfaUXOkm1oFJ2-16" target="Ry6czEcbfaUXOkm1oFJ2-27" edge="1">
          <mxGeometry relative="1" as="geometry" />
        </mxCell>
        <mxCell id="Ry6czEcbfaUXOkm1oFJ2-30" style="rounded=0;orthogonalLoop=1;jettySize=auto;html=1;entryX=0;entryY=0.5;entryDx=0;entryDy=0;" parent="1" source="Ry6czEcbfaUXOkm1oFJ2-16" target="Ry6czEcbfaUXOkm1oFJ2-29" edge="1">
          <mxGeometry relative="1" as="geometry" />
        </mxCell>
        <mxCell id="Ry6czEcbfaUXOkm1oFJ2-43" style="rounded=0;orthogonalLoop=1;jettySize=auto;html=1;entryX=0;entryY=0.5;entryDx=0;entryDy=0;" parent="1" source="Ry6czEcbfaUXOkm1oFJ2-16" target="Ry6czEcbfaUXOkm1oFJ2-42" edge="1">
          <mxGeometry relative="1" as="geometry" />
        </mxCell>
        <mxCell id="Ry6czEcbfaUXOkm1oFJ2-16" value="PIXEL" style="whiteSpace=wrap;html=1;rounded=1;fillColor=#fad9d5;strokeColor=#ae4132;" parent="1" vertex="1">
          <mxGeometry x="160" y="590" width="120" height="60" as="geometry" />
        </mxCell>
        <mxCell id="Ry6czEcbfaUXOkm1oFJ2-20" value="" style="edgeStyle=orthogonalEdgeStyle;rounded=0;orthogonalLoop=1;jettySize=auto;html=1;strokeWidth=3;startArrow=oval;startFill=1;" parent="1" source="Ry6czEcbfaUXOkm1oFJ2-18" target="Ry6czEcbfaUXOkm1oFJ2-19" edge="1">
          <mxGeometry relative="1" as="geometry" />
        </mxCell>
        <mxCell id="Ry6czEcbfaUXOkm1oFJ2-34" style="rounded=0;orthogonalLoop=1;jettySize=auto;html=1;entryX=0;entryY=0.5;entryDx=0;entryDy=0;" parent="1" source="Ry6czEcbfaUXOkm1oFJ2-19" target="Ry6czEcbfaUXOkm1oFJ2-31" edge="1">
          <mxGeometry relative="1" as="geometry" />
        </mxCell>
        <mxCell id="Ry6czEcbfaUXOkm1oFJ2-36" style="rounded=0;orthogonalLoop=1;jettySize=auto;html=1;entryX=0;entryY=0.5;entryDx=0;entryDy=0;" parent="1" source="Ry6czEcbfaUXOkm1oFJ2-19" target="Ry6czEcbfaUXOkm1oFJ2-33" edge="1">
          <mxGeometry relative="1" as="geometry" />
        </mxCell>
        <mxCell id="Ry6czEcbfaUXOkm1oFJ2-38" value="" style="rounded=0;orthogonalLoop=1;jettySize=auto;html=1;entryX=0.5;entryY=1;entryDx=0;entryDy=0;" parent="1" source="Ry6czEcbfaUXOkm1oFJ2-19" target="Ry6czEcbfaUXOkm1oFJ2-37" edge="1">
          <mxGeometry relative="1" as="geometry" />
        </mxCell>
        <mxCell id="Ry6czEcbfaUXOkm1oFJ2-40" style="rounded=0;orthogonalLoop=1;jettySize=auto;html=1;entryX=0.5;entryY=1;entryDx=0;entryDy=0;" parent="1" source="Ry6czEcbfaUXOkm1oFJ2-19" target="Ry6czEcbfaUXOkm1oFJ2-39" edge="1">
          <mxGeometry relative="1" as="geometry" />
        </mxCell>
        <mxCell id="Ry6czEcbfaUXOkm1oFJ2-41" style="rounded=0;orthogonalLoop=1;jettySize=auto;html=1;entryX=0;entryY=0.5;entryDx=0;entryDy=0;" parent="1" source="Ry6czEcbfaUXOkm1oFJ2-19" target="Ry6czEcbfaUXOkm1oFJ2-32" edge="1">
          <mxGeometry relative="1" as="geometry" />
        </mxCell>
        <mxCell id="Ry6czEcbfaUXOkm1oFJ2-45" style="rounded=0;orthogonalLoop=1;jettySize=auto;html=1;entryX=0;entryY=0.5;entryDx=0;entryDy=0;" parent="1" source="Ry6czEcbfaUXOkm1oFJ2-19" target="Ry6czEcbfaUXOkm1oFJ2-44" edge="1">
          <mxGeometry relative="1" as="geometry" />
        </mxCell>
        <mxCell id="Ry6czEcbfaUXOkm1oFJ2-47" style="rounded=0;orthogonalLoop=1;jettySize=auto;html=1;entryX=0.5;entryY=0;entryDx=0;entryDy=0;" parent="1" source="Ry6czEcbfaUXOkm1oFJ2-19" target="Ry6czEcbfaUXOkm1oFJ2-46" edge="1">
          <mxGeometry relative="1" as="geometry" />
        </mxCell>
        <mxCell id="Ry6czEcbfaUXOkm1oFJ2-19" value="RING" style="whiteSpace=wrap;html=1;fillColor=#eeeeee;rounded=1;strokeColor=#36393d;" parent="1" vertex="1">
          <mxGeometry x="640" y="190" width="120" height="60" as="geometry" />
        </mxCell>
        <mxCell id="Ry6czEcbfaUXOkm1oFJ2-17" value="" style="edgeStyle=orthogonalEdgeStyle;rounded=0;orthogonalLoop=1;jettySize=auto;html=1;strokeWidth=3;startArrow=oval;startFill=1;" parent="1" source="Ry6czEcbfaUXOkm1oFJ2-4" target="Ry6czEcbfaUXOkm1oFJ2-16" edge="1">
          <mxGeometry relative="1" as="geometry" />
        </mxCell>
        <mxCell id="Ry6czEcbfaUXOkm1oFJ2-21" value="color" style="ellipse;whiteSpace=wrap;html=1;rounded=1;fillColor=#ffe6cc;strokeColor=#d79b00;" parent="1" vertex="1">
          <mxGeometry x="180" y="710" width="80" height="60" as="geometry" />
        </mxCell>
        <mxCell id="Ry6czEcbfaUXOkm1oFJ2-23" value="on()" style="shape=parallelogram;perimeter=parallelogramPerimeter;whiteSpace=wrap;html=1;fixedSize=1;rounded=1;fillColor=#dae8fc;strokeColor=#6c8ebf;" parent="1" vertex="1">
          <mxGeometry x="400" y="540" width="120" height="60" as="geometry" />
        </mxCell>
        <mxCell id="Ry6czEcbfaUXOkm1oFJ2-27" value="off()" style="shape=parallelogram;perimeter=parallelogramPerimeter;whiteSpace=wrap;html=1;fixedSize=1;rounded=1;fillColor=#dae8fc;strokeColor=#6c8ebf;" parent="1" vertex="1">
          <mxGeometry x="400" y="630" width="120" height="60" as="geometry" />
        </mxCell>
        <mxCell id="Ry6czEcbfaUXOkm1oFJ2-29" value="toggle()" style="shape=parallelogram;perimeter=parallelogramPerimeter;whiteSpace=wrap;html=1;fixedSize=1;rounded=1;fillColor=#dae8fc;strokeColor=#6c8ebf;" parent="1" vertex="1">
          <mxGeometry x="400" y="720" width="120" height="60" as="geometry" />
        </mxCell>
        <mxCell id="Ry6czEcbfaUXOkm1oFJ2-31" value="on()" style="shape=parallelogram;perimeter=parallelogramPerimeter;whiteSpace=wrap;html=1;fixedSize=1;rounded=1;fillColor=#dae8fc;strokeColor=#6c8ebf;" parent="1" vertex="1">
          <mxGeometry x="880" y="240" width="120" height="60" as="geometry" />
        </mxCell>
        <mxCell id="Ry6czEcbfaUXOkm1oFJ2-32" value="off()" style="shape=parallelogram;perimeter=parallelogramPerimeter;whiteSpace=wrap;html=1;fixedSize=1;rounded=1;fillColor=#dae8fc;strokeColor=#6c8ebf;" parent="1" vertex="1">
          <mxGeometry x="880" y="150" width="120" height="60" as="geometry" />
        </mxCell>
        <mxCell id="Ry6czEcbfaUXOkm1oFJ2-33" value="toggle()" style="shape=parallelogram;perimeter=parallelogramPerimeter;whiteSpace=wrap;html=1;fixedSize=1;rounded=1;fillColor=#dae8fc;strokeColor=#6c8ebf;" parent="1" vertex="1">
          <mxGeometry x="880" y="60" width="120" height="60" as="geometry" />
        </mxCell>
        <mxCell id="Ry6czEcbfaUXOkm1oFJ2-37" value="color" style="ellipse;whiteSpace=wrap;html=1;fillColor=#ffe6cc;rounded=1;strokeColor=#d79b00;" parent="1" vertex="1">
          <mxGeometry x="600" y="70" width="80" height="60" as="geometry" />
        </mxCell>
        <mxCell id="Ry6czEcbfaUXOkm1oFJ2-39" value="brightness" style="ellipse;whiteSpace=wrap;html=1;fillColor=#ffe6cc;rounded=1;strokeColor=#d79b00;" parent="1" vertex="1">
          <mxGeometry x="720" y="70" width="80" height="60" as="geometry" />
        </mxCell>
        <mxCell id="Ry6czEcbfaUXOkm1oFJ2-42" value="write()" style="shape=parallelogram;perimeter=parallelogramPerimeter;whiteSpace=wrap;html=1;fixedSize=1;rounded=1;fillColor=#dae8fc;strokeColor=#6c8ebf;" parent="1" vertex="1">
          <mxGeometry x="400" y="460" width="120" height="60" as="geometry" />
        </mxCell>
        <mxCell id="Ry6czEcbfaUXOkm1oFJ2-44" value="write()" style="shape=parallelogram;perimeter=parallelogramPerimeter;whiteSpace=wrap;html=1;fixedSize=1;rounded=1;fillColor=#dae8fc;strokeColor=#6c8ebf;" parent="1" vertex="1">
          <mxGeometry x="880" y="330" width="120" height="60" as="geometry" />
        </mxCell>
        <mxCell id="Ry6czEcbfaUXOkm1oFJ2-46" value="deinit()" style="shape=parallelogram;perimeter=parallelogramPerimeter;whiteSpace=wrap;html=1;fixedSize=1;rounded=1;fillColor=#dae8fc;strokeColor=#6c8ebf;" parent="1" vertex="1">
          <mxGeometry x="730" y="390" width="120" height="60" as="geometry" />
        </mxCell>
      </root>
    </mxGraphModel>
  </diagram>
</mxfile>
